<svg width="128" height="128" viewBox="0 0 128 128" xmlns="http://www.w3.org/2000/svg">
  <!-- Background circle -->
  <circle cx="64" cy="64" r="60" fill="#667eea" stroke="#764ba2" stroke-width="4"/>
  
  <!-- Question mark -->
  <path d="M64 32c-12 0-20 8-20 18h8c0-6 4-10 12-10s12 4 12 10c0 4-2 6-8 10-6 4-8 8-8 14h8c0-4 2-6 8-10 6-4 8-8 8-14 0-10-8-18-20-18z" fill="white"/>
  <circle cx="64" cy="96" r="4" fill="white"/>
  
  <!-- Decorative dots -->
  <circle cx="32" cy="40" r="3" fill="#ffffff" opacity="0.6"/>
  <circle cx="96" cy="40" r="3" fill="#ffffff" opacity="0.6"/>
  <circle cx="32" cy="88" r="3" fill="#ffffff" opacity="0.6"/>
  <circle cx="96" cy="88" r="3" fill="#ffffff" opacity="0.6"/>
</svg>
